<svg width="60" height="60" viewBox="0 0 60 60" fill="none" xmlns="http://www.w3.org/2000/svg">
<path d="M57.0264 22.4097H55.8343V17.9795C55.8343 15.3604 53.7036 13.2297 51.0846 13.2297H33.8708C32.2751 13.2297 30.8617 14.0216 30 15.232C29.1383 14.0215 27.7249 13.2297 26.1292 13.2297H15.3149C14.8295 13.2297 14.436 13.6233 14.436 14.1086C14.436 14.594 14.8295 14.9875 15.3149 14.9875H26.1292C27.7789 14.9875 29.1211 16.3297 29.1211 17.9795V26.7697C29.1027 26.752 29.0832 26.7355 29.0646 26.718C28.0228 25.7467 26.6108 25.1867 25.1856 25.1867H10.5456C10.4681 24.0067 9.66363 22.9687 8.55352 22.5752C8.24074 22.4643 7.91004 22.4097 7.57828 22.4097H5.92348V17.9795C5.92348 16.3297 7.26563 14.9875 8.91539 14.9875H11.7993C12.2846 14.9875 12.6782 14.594 12.6782 14.1086C12.6782 13.6233 12.2846 13.2297 11.7993 13.2297H8.91539C6.29637 13.2297 4.16566 15.3604 4.16566 17.9795V22.4097H2.97363C1.33395 22.4097 0 23.7439 0 25.3834V34.5604C0 37.9751 2.77805 40.7531 6.19266 40.7531H6.63434C6.63434 40.7531 5.67199 43.3415 5.67129 43.3435C5.06414 44.9764 6.31383 46.7702 8.05313 46.7702H9.46711C10.2586 46.7702 11.0162 46.3933 11.4938 45.7621L15.2825 40.7531H44.7177L48.5065 45.7622C48.984 46.3933 49.7416 46.7702 50.533 46.7702C50.533 46.7702 51.9461 46.7702 51.9469 46.7702C53.6883 46.7702 54.9357 44.9761 54.3287 43.3435L53.3655 40.7531H53.8073C57.222 40.7531 60 37.9751 60 34.5604V25.3834C60 23.7439 58.6661 22.4097 57.0264 22.4097ZM30.8789 17.9797C30.8789 16.3298 32.2211 14.9877 33.8708 14.9877H51.0846C52.7344 14.9877 54.0765 16.3298 54.0765 17.9796V22.4099C54.0765 22.4099 52.4222 22.4099 52.4216 22.4099C51.253 22.4099 50.132 23.1599 49.6787 24.2359C49.5518 24.5372 49.4757 24.8608 49.4544 25.187C49.4544 25.187 34.8149 25.187 34.8144 25.187C33.3671 25.187 31.9247 25.7693 30.8789 26.7699V17.9797ZM10.552 26.9447H25.1856C27.3557 26.9448 29.1211 28.7102 29.1211 30.8803V32.1301H10.552V26.9447ZM10.0918 44.7016C9.94465 44.8963 9.71098 45.0124 9.46699 45.0124C9.46699 45.0124 8.05793 45.0124 8.05301 45.0124C7.51488 45.0124 7.13133 44.4603 7.31883 43.9562L8.50969 40.7531H13.0784L10.0918 44.7016ZM51.9469 45.0123H50.533C50.289 45.0123 50.0555 44.8962 49.9083 44.7016L46.9216 40.7531H51.4903C51.4903 40.7531 52.6771 43.9449 52.6812 43.9561C52.869 44.4614 52.4828 45.0123 51.9469 45.0123ZM53.8073 38.9953H6.19266C3.7473 38.9954 1.75781 37.0058 1.75781 34.5604V25.3834C1.75781 24.7129 2.3032 24.1676 2.97363 24.1676H7.57828C8.24871 24.1676 8.7941 24.7129 8.7941 25.3834V33.0089C8.7941 33.4943 9.18762 33.8878 9.67301 33.8878H41.9555C42.4409 33.8878 42.8344 33.4943 42.8344 33.0089C42.8344 32.5235 42.4409 32.13 41.9555 32.13H30.8789V30.8802C30.8789 28.7101 32.6443 26.9447 34.8144 26.9447H49.448V32.1301H45.4711C44.9857 32.1301 44.5922 32.5236 44.5922 33.009C44.5922 33.4944 44.9857 33.8879 45.4711 33.8879H50.3269C50.8123 33.8879 51.2058 33.4944 51.2058 33.009V25.3835C51.2058 24.7131 51.7512 24.1677 52.4216 24.1677H57.0262C57.6967 24.1677 58.2421 24.7131 58.2421 25.3835V34.5604H58.2422C58.2422 37.0058 56.2527 38.9953 53.8073 38.9953Z" fill="#FF6B00"/>
</svg>
