<svg width="50" height="50" viewBox="0 0 50 50" fill="none" xmlns="http://www.w3.org/2000/svg">
<path d="M33.9207 28.6893C33.4236 28.5937 32.0752 28.3342 31.46 28.2158C30.7176 28.0729 30.1788 27.4206 30.1788 26.6646V25.7403C30.7164 25.4109 31.2346 25.0281 31.7321 24.5909C33.4973 23.0392 34.5877 20.8387 34.808 18.3879C36.0973 18.3435 37.13 17.2691 37.1246 15.9595L37.1168 14.1C37.1144 13.5236 36.9072 12.9718 36.5396 12.5387V10.2597C36.5396 9.85017 36.2076 9.51814 35.798 9.51814C35.3884 9.51814 35.0564 9.85017 35.0564 10.2597V11.8481C28.2995 9.94851 21.6997 9.94841 14.9435 11.8481V8.00261C14.9435 5.51287 16.63 3.35037 19.0448 2.74373L23.162 1.70955C24.3644 1.40759 25.6355 1.40759 26.8378 1.70955L30.955 2.74373C32.9737 3.25076 34.542 4.89588 34.9506 6.93484C35.0311 7.3364 35.422 7.59666 35.8235 7.51629C36.225 7.43582 36.4854 7.045 36.4049 6.64343C35.8844 4.04627 33.8871 1.95095 31.3164 1.30525L27.1992 0.271069C25.7604 -0.0903565 24.2394 -0.0903565 22.8005 0.271069L18.6833 1.30525C15.6081 2.07771 13.4602 4.83181 13.4602 8.00261V12.5388C13.0926 12.9719 12.8854 13.5237 12.883 14.1001L12.8752 15.9595C12.8698 17.2691 13.9025 18.3435 15.1918 18.388C15.4121 20.8388 16.5025 23.0393 18.2677 24.591C18.7651 25.0282 19.2834 25.4109 19.821 25.7404V26.6647C19.821 27.3555 19.3969 27.9987 18.5466 28.2139L16.0792 28.6895C9.27085 29.9998 4.35913 35.9845 4.35913 42.8803V45.8983C4.35913 48.16 6.19917 50.0002 8.46099 50.0002H41.5389C43.8006 50.0002 45.6408 48.1601 45.6408 45.8983V42.8803C45.6408 35.9574 40.703 29.9946 33.9207 28.6893V28.6893ZM34.1718 30.26C34.9723 30.449 35.7413 30.7112 36.4727 31.038V39.3816C35.9854 39.0515 35.3981 38.8585 34.7666 38.8585H34.1719V30.26H34.1718ZM34.3516 13.1905C33.586 13.9445 32.6936 15.129 30.8839 14.8164C28.9042 14.475 26.9523 14.3043 25 14.3043C23.0481 14.3043 21.0959 14.475 19.1165 14.8163C17.3201 15.1263 16.4196 13.9511 15.6453 13.1913C21.9258 11.4796 28.0703 11.4793 34.3516 13.1905V13.1905ZM19.2471 23.4768C17.7542 22.1645 16.8368 20.2877 16.6638 18.1919C16.6036 17.462 16.0047 16.9092 15.2709 16.906C14.7657 16.9039 14.3564 16.482 14.3585 15.9656L14.3663 14.1061C14.3664 14.0778 14.3685 14.0498 14.3711 14.0219C15.5076 15.1215 16.7825 16.724 19.3684 16.278C23.1581 15.6245 26.8423 15.6245 30.6318 16.2781C33.3126 16.7403 34.6771 14.9387 35.6286 14.0179C35.6314 14.0471 35.6335 14.0765 35.6336 14.1061L35.6414 15.9656C35.6435 16.482 35.2342 16.9038 34.7291 16.906C33.9953 16.9092 33.3964 17.462 33.3362 18.192C33.1632 20.2877 32.2458 22.1646 30.7529 23.4769C27.3375 26.479 22.697 26.5095 19.2471 23.4768V23.4768ZM30.1225 29.2526L28.8693 30.2595C26.7394 31.9706 23.6564 31.9596 21.5388 30.233L20.1255 29.0807C21.445 28.0577 21.2931 26.5413 21.3043 26.4908C23.72 27.4743 26.2508 27.4861 28.6956 26.4908C28.7041 26.5246 28.549 28.2554 30.1225 29.2526ZM17.5012 29.9262L18.5643 29.7216L20.6015 31.3826C23.2594 33.5497 27.0961 33.5867 29.7982 31.4157L31.8159 29.7948L32.6885 29.9628V38.8586H17.5012V29.9262ZM11.5612 43.443C11.1089 43.9888 10.8599 44.6798 10.8599 45.3887V48.5168H8.46099C7.01714 48.5168 5.84243 47.3421 5.84243 45.8982V43.414H11.5852L11.5612 43.443ZM12.2339 41.9306H5.87769C6.19282 37.6271 8.63198 33.8309 12.2338 31.7057V33.8504C12.2338 34.2599 12.5659 34.592 12.9754 34.592C13.385 34.592 13.717 34.2599 13.717 33.8504V30.955C14.4495 30.6418 15.2185 30.3931 16.0179 30.217V38.8586H15.4145C14.7867 38.8586 14.2026 39.0494 13.717 39.376V37.3174C13.717 36.9078 13.385 36.5758 12.9754 36.5758C12.5659 36.5758 12.2338 36.9078 12.2338 37.3174V41.9306H12.2339ZM37.6569 48.5168H12.343V45.3887C12.343 44.5883 12.8917 44.2255 13.1467 43.854C13.6027 43.3036 13.848 42.6062 13.848 41.9083C13.848 41.0445 14.5507 40.3418 15.4145 40.3418H34.7664C35.6301 40.3418 36.3329 41.0445 36.3329 41.9083C36.3412 41.9639 36.2543 42.8741 36.9179 43.7847C37.1964 44.2333 37.6567 44.5748 37.6567 45.3086V48.5168H37.6569ZM37.9559 41.9306V31.82C41.4535 33.9653 43.8126 37.7032 44.1222 41.9306H37.9559ZM44.1575 45.8981C44.1575 47.342 42.9828 48.5167 41.5389 48.5167H39.1401V45.3086C39.1401 44.6588 38.9377 44.0377 38.555 43.5124L38.4833 43.414H44.1575V45.8981Z" fill="#FF6B00"/>
<path d="M22.2466 4.04858C21.2839 4.04858 20.5007 4.83179 20.5007 5.79448V7.08198C20.5007 8.04468 21.2839 8.82788 22.2466 8.82788H27.7531C28.7158 8.82788 29.499 8.04468 29.499 7.08198V5.79448C29.499 4.83179 28.7158 4.04858 27.7531 4.04858H22.2466ZM28.0158 5.79448V7.08198C28.0158 7.22681 27.898 7.34468 27.7531 7.34468H22.2466C22.1018 7.34468 21.9839 7.2269 21.9839 7.08198V5.79448C21.9839 5.64966 22.1017 5.53179 22.2466 5.53179H27.7531C27.8979 5.53179 28.0158 5.64966 28.0158 5.79448Z" fill="#FF6B00"/>
</svg>
