<svg width="55" height="55" viewBox="0 0 55 55" fill="none" xmlns="http://www.w3.org/2000/svg">
<path d="M52.5831 23.4708H51.7779V21.0534V12.4597C51.7779 9.6461 49.4888 7.35705 46.6754 7.35705H24.5488L9.62112 3.09198C9.61682 3.0908 9.61241 3.09016 9.60812 3.08897C9.60371 3.08779 9.59952 3.08607 9.59512 3.085C9.5861 3.08274 9.57718 3.08167 9.56826 3.07974C9.55441 3.07684 9.54055 3.07383 9.52669 3.07157C9.51412 3.06953 9.50177 3.06824 9.4892 3.06674C9.47459 3.06502 9.46009 3.06352 9.44559 3.06266C9.43377 3.06201 9.42206 3.0619 9.41025 3.06169C9.39521 3.06147 9.38028 3.06137 9.36534 3.06201C9.35428 3.06244 9.34321 3.06352 9.33226 3.06438C9.3169 3.06566 9.30154 3.06706 9.28639 3.06932C9.27608 3.07082 9.26587 3.07275 9.25567 3.07458C9.23998 3.07737 9.22451 3.08038 9.20915 3.08414C9.19959 3.0865 9.19025 3.08919 9.18079 3.09188C9.16511 3.09639 9.14964 3.10101 9.13417 3.10638C9.12547 3.10949 9.11688 3.11282 9.10818 3.11626C9.0926 3.12228 9.07713 3.12861 9.06199 3.1356C9.05393 3.13936 9.04609 3.14344 9.03814 3.14741C9.02299 3.15504 9.00806 3.16277 8.99345 3.17147C8.98582 3.17588 8.97852 3.18061 8.971 3.18533C8.9566 3.19436 8.94242 3.20359 8.92867 3.21358C8.92148 3.21874 8.91449 3.22433 8.9074 3.2298C8.89419 3.24001 8.88109 3.25043 8.86852 3.26149C8.86143 3.26772 8.85466 3.27428 8.84779 3.28072C8.83597 3.29189 8.82426 3.30307 8.81309 3.31488C8.80611 3.32229 8.79955 3.33003 8.79279 3.33776C8.78258 3.34947 8.77248 3.36129 8.76292 3.37364C8.75605 3.38256 8.7496 3.39169 8.74305 3.40082C8.73456 3.41274 8.72619 3.42478 8.71845 3.43713C8.71179 3.44766 8.70567 3.45861 8.69954 3.46946C8.69278 3.48139 8.68601 3.49342 8.67989 3.50577C8.67387 3.5178 8.6685 3.53016 8.66302 3.54251C8.65765 3.55465 8.65239 3.56679 8.64766 3.57925C8.64272 3.59235 8.63842 3.60578 8.63402 3.61932C8.63122 3.62802 8.62779 3.63618 8.62521 3.64499C8.62392 3.64939 8.62338 3.65369 8.6222 3.65799C8.62102 3.66239 8.6193 3.66658 8.61823 3.67099L7.69698 7.35684H5.10307C2.29517 7.35684 0.0100976 9.63665 0.000859373 12.4425C0.000751952 12.4483 0 12.4538 0 12.4595V40.3891C0 40.8338 0.362011 41.1948 0.805663 41.1948C1.25039 41.1948 1.61133 40.8338 1.61133 40.3891V16.1755C2.52484 17.0345 3.7531 17.5623 5.10307 17.5623H46.6754C46.6763 17.5623 46.6772 17.5622 46.6782 17.5622C48.6019 17.5637 50.1666 19.1293 50.1666 21.0535V26.6936H41.303C41.3025 26.6936 41.302 26.6937 41.3015 26.6937C41.2782 26.6937 41.255 26.6951 41.2319 26.6971C41.2062 26.6994 41.1809 26.703 41.1559 26.7077C41.1522 26.7083 41.1485 26.7086 41.1448 26.7094C41.1237 26.7136 41.1031 26.7192 41.0826 26.725C41.078 26.7263 41.0734 26.7271 41.069 26.7285C41.0508 26.7341 41.033 26.7408 41.0153 26.7475C41.0085 26.7501 41.0017 26.7522 40.9949 26.755C40.9801 26.7612 40.9658 26.7684 40.9515 26.7753C40.9421 26.7799 40.9325 26.784 40.9233 26.7889C40.9121 26.7948 40.9016 26.8016 40.8908 26.808C40.8789 26.8151 40.8668 26.822 40.8551 26.8297C40.8473 26.8349 40.8401 26.8408 40.8326 26.8462C40.8188 26.8561 40.805 26.8659 40.7919 26.8768C40.7862 26.8815 40.7809 26.8867 40.7754 26.8916C40.7614 26.9038 40.7473 26.916 40.734 26.9293C40.7261 26.9371 40.719 26.9457 40.7116 26.9539C40.7012 26.9652 40.6905 26.9762 40.6806 26.9883C40.6639 27.0086 40.6484 27.0296 40.6338 27.0514C40.6334 27.0517 40.6331 27.0522 40.6329 27.0526L36.3362 33.498C36.3063 33.5429 36.2809 33.5905 36.2608 33.64C36.2532 33.6585 36.2471 33.6773 36.241 33.696C36.2391 33.7017 36.2368 33.7072 36.2351 33.7129C36.229 33.7327 36.2244 33.7528 36.22 33.7728C36.2188 33.7781 36.2173 33.7832 36.2162 33.7885C36.2127 33.8065 36.2103 33.8247 36.2081 33.8428C36.2071 33.8506 36.2056 33.8583 36.2049 33.8661C36.2034 33.8811 36.203 33.8959 36.2025 33.9108C36.202 33.9222 36.201 33.9336 36.201 33.9451C36.201 33.9562 36.202 33.9672 36.2024 33.9783C36.2029 33.9935 36.2034 34.0089 36.2049 34.0242C36.2056 34.0316 36.207 34.039 36.208 34.0464C36.2103 34.0649 36.2127 34.0833 36.2164 34.1017C36.2173 34.1068 36.2188 34.1117 36.22 34.1168C36.2244 34.137 36.2291 34.1571 36.2352 34.1772C36.2369 34.1829 36.2392 34.1884 36.2411 34.1942C36.2472 34.2129 36.2533 34.2317 36.2609 34.2502C36.2811 34.2996 36.3065 34.3473 36.3366 34.3923L40.6331 40.8367C40.6333 40.8371 40.6335 40.8373 40.6338 40.8376C40.651 40.8633 40.67 40.8878 40.6899 40.9113C40.6965 40.919 40.7035 40.9262 40.7102 40.9335C40.7239 40.9485 40.7381 40.9628 40.7528 40.9767C40.7615 40.9849 40.7701 40.9928 40.7789 41.0004C40.7946 41.0139 40.8108 41.0264 40.8274 41.0387C40.835 41.0442 40.8421 41.0502 40.8498 41.0553C40.8739 41.0718 40.899 41.0869 40.9249 41.1007C40.9314 41.1041 40.9382 41.107 40.9447 41.1102C40.9654 41.1205 40.9864 41.1301 41.008 41.1386C41.0164 41.1419 41.0248 41.1449 41.0333 41.1479C41.0538 41.1552 41.0746 41.1617 41.0959 41.1674C41.1046 41.1696 41.1132 41.172 41.122 41.1741C41.1438 41.1792 41.1659 41.1831 41.1884 41.1863C41.1965 41.1875 41.2046 41.1891 41.2128 41.19C41.2405 41.1932 41.2686 41.1949 41.2972 41.1951C41.2994 41.1951 41.3017 41.1955 41.3041 41.1955C41.3045 41.1955 41.305 41.1954 41.3056 41.1954H50.1669V46.8359C50.1669 48.7611 48.6007 50.3273 46.6757 50.3273H5.1035C3.1785 50.3273 1.61229 48.7611 1.61229 46.8359C1.61229 46.8317 1.61175 46.8276 1.61165 46.8235V43.6122C1.61165 43.1685 1.25071 42.8065 0.805985 42.8065C0.362333 42.8065 0.000322265 43.1685 0.000322265 43.6122V46.8359C0.000322265 46.8443 0.00128906 46.8525 0.00161133 46.8607C0.015039 49.6629 2.29829 51.9387 5.1035 51.9387H46.6757C49.489 51.9387 51.7778 49.65 51.7782 46.8368C51.7782 46.8367 51.7782 46.8366 51.7782 46.8363V41.1954H52.5834C53.9159 41.1954 55 40.1113 55 38.7789V25.8874C54.9997 24.5549 53.9156 23.4708 52.5831 23.4708ZM9.97947 4.87013L24.1956 8.93207C24.1962 8.93228 24.1969 8.93239 24.1976 8.93261L33.7255 11.6549H8.28371L9.97947 4.87013ZM50.1665 17.3373C49.2531 16.4785 48.025 15.9508 46.6754 15.9508C46.674 15.9508 46.6727 15.951 46.6712 15.951H5.10307C3.17796 15.951 1.61175 14.3848 1.61175 12.4597C1.61175 10.5346 3.17796 8.96838 5.10307 8.96838H7.29425L6.62287 11.6549H5.10328C4.65834 11.6549 4.29762 12.0156 4.29762 12.4605C4.29762 12.9055 4.65834 13.2662 5.10328 13.2662H7.24914C7.25021 13.2662 7.25139 13.2664 7.25257 13.2664C7.25343 13.2664 7.25429 13.2662 7.25505 13.2662H39.4752C39.4763 13.2662 39.4772 13.2664 39.4782 13.2664C39.4791 13.2664 39.4799 13.2662 39.4808 13.2662H45.6002C46.0451 13.2662 46.4058 12.9055 46.4058 12.4605C46.4058 12.0156 46.0451 11.6549 45.6002 11.6549H39.5907L30.1882 8.96838H46.6753C48.6003 8.96838 50.1665 10.5346 50.1665 12.4597V17.3373ZM53.3884 38.7784C53.3884 39.2224 53.0271 39.5837 52.5831 39.5837H41.7342L37.9745 33.9447L41.7342 28.3048H52.5831C52.5944 28.3048 52.6054 28.3035 52.6165 28.3031C52.8868 28.2993 53.1463 28.2512 53.3884 28.1655V38.7784V38.7784ZM52.5831 26.6926C52.5775 26.6926 52.5721 26.6934 52.5665 26.6935H51.7779V25.0822H52.5831C53.0271 25.0822 53.3884 25.4434 53.3884 25.8874C53.3884 26.3314 53.0271 26.6926 52.5831 26.6926Z" fill="#FF6B00"/>
<path d="M44.5261 30.9905C42.8972 30.9905 41.572 32.3157 41.572 33.9447C41.572 35.5736 42.8972 36.8988 44.5261 36.8988C46.1551 36.8988 47.4802 35.5736 47.4802 33.9447C47.4802 32.3157 46.1551 30.9905 44.5261 30.9905ZM44.5261 35.2875C43.7857 35.2875 43.1833 34.6851 43.1833 33.9447C43.1833 33.2042 43.7857 32.6018 44.5261 32.6018C45.2666 32.6018 45.8689 33.2042 45.8689 33.9447C45.8689 34.6851 45.2666 35.2875 44.5261 35.2875Z" fill="#FF6B00"/>
</svg>
