<svg width="32" height="32" viewBox="0 0 32 32" fill="none" xmlns="http://www.w3.org/2000/svg">
<g clip-path="url(#clip0_238_62)">
<path d="M14.6663 30.6458C6.57987 30.6458 0 24.0662 0 15.9798C0 7.89335 6.57987 1.31348 14.6663 1.31348C17.4782 1.31348 20.214 2.11472 22.5779 3.63201C23.042 3.93083 23.178 4.54946 22.8792 5.01478C22.5794 5.4801 21.962 5.61461 21.4966 5.31604C19.4567 4.00529 17.0942 3.31342 14.6663 3.31342C7.68238 3.31342 1.99994 8.99586 1.99994 15.9798C1.99994 22.9634 7.68238 28.6459 14.6663 28.6459C21.65 28.6459 27.3324 22.9634 27.3324 15.9798C27.3324 15.5623 27.3124 15.149 27.2738 14.7425C27.2206 14.1917 27.6232 13.7037 28.1725 13.6505C28.7244 13.5997 29.211 13.9999 29.2645 14.5492C29.3096 15.0198 29.3323 15.4971 29.3323 15.9798C29.3323 24.0662 22.7527 30.6458 14.6663 30.6458V30.6458Z" fill="#FF6B00"/>
<path d="M16.3328 19.3129C16.0769 19.3129 15.8208 19.2155 15.6263 19.0197L9.62646 13.0199C9.23584 12.6291 9.23584 11.9958 9.62646 11.6052C10.0171 11.2146 10.6503 11.2146 11.041 11.6052L16.3343 16.8985L30.2923 2.94018C30.6832 2.54956 31.3165 2.54956 31.7071 2.94018C32.0977 3.33079 32.0977 3.96407 31.7071 4.35468L17.0408 19.021C16.8447 19.2155 16.5889 19.3129 16.3328 19.3129V19.3129Z" fill="#FF6B00"/>
</g>
<defs>
<clipPath id="clip0_238_62">
<rect width="32" height="32" fill="white"/>
</clipPath>
</defs>
</svg>
