<svg width="70" height="70" viewBox="0 0 70 70" fill="none" xmlns="http://www.w3.org/2000/svg">
<path fill-rule="evenodd" clip-rule="evenodd" d="M12.5781 14.7656C12.5781 12.3494 14.5369 10.3906 16.9531 10.3906C19.3694 10.3906 21.3281 12.3494 21.3281 14.7656C21.3281 17.1819 19.3694 19.1406 16.9531 19.1406C14.5369 19.1406 12.5781 17.1819 12.5781 14.7656ZM16.9531 12.5781C15.745 12.5781 14.7656 13.5575 14.7656 14.7656C14.7656 15.9737 15.745 16.9531 16.9531 16.9531C18.1612 16.9531 19.1406 15.9737 19.1406 14.7656C19.1406 13.5575 18.1612 12.5781 16.9531 12.5781Z" fill="white"/>
<path fill-rule="evenodd" clip-rule="evenodd" d="M7.10938 15.4324C7.10938 9.94372 11.5026 5.46875 16.9531 5.46875C22.4037 5.46875 26.7969 9.94372 26.7969 15.4324C26.7969 16.9052 26.2805 18.3691 25.5629 19.7427C24.842 21.123 23.8748 22.492 22.8835 23.7873C22.3859 24.4374 21.8753 25.0778 21.3808 25.6964L21.2718 25.8328C20.8138 26.4056 20.3721 26.9579 19.9587 27.4935C19.0556 28.6636 18.3463 29.6802 17.944 30.5412C17.7642 30.9259 17.3779 31.1719 16.9531 31.1719C16.5284 31.1719 16.1421 30.9259 15.9622 30.5412C15.5599 29.6802 14.8506 28.6636 13.9475 27.4935C13.5341 26.9578 13.0924 26.4055 12.6343 25.8325L12.5255 25.6964C12.0309 25.0778 11.5203 24.4374 11.0228 23.7873C10.0314 22.492 9.06429 21.123 8.34334 19.7427C7.62579 18.3691 7.10938 16.9052 7.10938 15.4324V15.4324ZM16.9531 7.65625C12.7387 7.65625 9.29688 11.1237 9.29688 15.4324C9.29688 16.409 9.64529 17.5106 10.2822 18.7299C10.9157 19.9426 11.7926 21.194 12.7599 22.4579C13.2417 23.0873 13.739 23.7112 14.2341 24.3305L14.3456 24.47C14.8008 25.0393 15.2538 25.6058 15.6792 26.1569C16.1311 26.7424 16.5664 27.3288 16.9531 27.9054C17.3398 27.3288 17.7752 26.7424 18.2271 26.1569C18.6525 25.6057 19.1056 25.0391 19.5608 24.4697L19.6722 24.3305C20.1673 23.7112 20.6645 23.0873 21.1463 22.4579C22.1136 21.194 22.9906 19.9426 23.624 18.7299C24.261 17.5106 24.6094 16.409 24.6094 15.4324C24.6094 11.1237 21.1676 7.65625 16.9531 7.65625V7.65625Z" fill="white"/>
<path fill-rule="evenodd" clip-rule="evenodd" d="M52.5 45.9375C50.0837 45.9375 48.125 47.8962 48.125 50.3125C48.125 52.7288 50.0837 54.6875 52.5 54.6875C54.9161 54.6875 56.875 52.7288 56.875 50.3125C56.875 47.8962 54.9161 45.9375 52.5 45.9375ZM50.3125 50.3125C50.3125 49.1044 51.2919 48.125 52.5 48.125C53.7081 48.125 54.6875 49.1044 54.6875 50.3125C54.6875 51.5206 53.7081 52.5 52.5 52.5C51.2919 52.5 50.3125 51.5206 50.3125 50.3125Z" fill="white"/>
<path fill-rule="evenodd" clip-rule="evenodd" d="M42.6562 50.9793C42.6562 45.4906 47.0495 41.0156 52.5 41.0156C57.9507 41.0156 62.3438 45.4906 62.3438 50.9793C62.3438 52.4521 61.8275 53.916 61.11 55.2896C60.3887 56.6699 59.4218 58.0388 58.4303 59.3343C57.9327 59.9845 57.4224 60.6249 56.9275 61.2434L56.8192 61.3791C56.3609 61.9522 55.9191 62.5045 55.5056 63.0405C54.6025 64.2102 53.8932 65.2269 53.4909 66.0882C53.3111 66.4727 52.9248 66.7188 52.5 66.7188C52.0752 66.7188 51.6889 66.4727 51.5091 66.0882C51.1068 65.2269 50.3975 64.2102 49.4944 63.0405C49.0812 62.5051 48.6399 61.9533 48.1821 61.3807L48.0723 61.2434C47.5778 60.6249 47.0672 59.9845 46.5696 59.3343C45.5783 58.0388 44.6112 56.6699 43.8902 55.2896C43.1727 53.916 42.6562 52.4521 42.6562 50.9793ZM52.5 43.2031C48.2856 43.2031 44.8438 46.6705 44.8438 50.9793C44.8438 51.9559 45.1922 53.0574 45.8291 54.2768C46.4626 55.4892 47.3395 56.741 48.3068 58.0048C48.7886 58.6343 49.2859 59.2583 49.7809 59.8773L49.892 60.0163L49.8924 60.0168C50.3476 60.5861 50.8006 61.1527 51.2261 61.7039C51.6779 62.2891 52.1133 62.8759 52.5 63.4523C52.8867 62.8759 53.3221 62.2891 53.7739 61.7039C54.1989 61.1532 54.6514 60.5872 55.1064 60.0184L55.1075 60.0173L55.108 60.0163L55.2191 59.8773C55.714 59.2583 56.2116 58.6343 56.6934 58.0048C57.6603 56.741 58.5375 55.4892 59.1708 54.2768C59.8079 53.0574 60.1562 51.9559 60.1562 50.9793C60.1562 46.6705 56.7142 43.2031 52.5 43.2031V43.2031Z" fill="white"/>
<path d="M40.4688 54.6875C41.0728 54.6875 41.5625 54.1978 41.5625 53.5938C41.5625 52.9897 41.0728 52.5 40.4688 52.5H23.0957C18.4951 52.5 14.7656 48.7705 14.7656 44.17C14.7656 39.5694 18.4951 35.84 23.0957 35.84H47.2357C52.8614 35.84 57.4219 31.2795 57.4219 25.6538C57.4219 20.0282 52.8614 15.4677 47.2357 15.4677H33.7867L37.3651 12.3038C37.8177 11.9037 37.8602 11.2124 37.46 10.7599C37.0599 10.3074 36.3687 10.2649 35.9161 10.665L29.2733 16.5383L35.8932 22.7355C36.3341 23.1484 37.0263 23.1256 37.4391 22.6846C37.8519 22.2436 37.8291 21.5514 37.3881 21.1386L33.6672 17.6552H47.2357C51.6533 17.6552 55.2344 21.2363 55.2344 25.6538C55.2344 30.0713 51.6533 33.6525 47.2357 33.6525H23.0957C17.287 33.6525 12.5781 38.3613 12.5781 44.17C12.5781 49.9787 17.287 54.6875 23.0957 54.6875H40.4688Z" fill="white"/>
</svg>
