<svg width="70" height="70" viewBox="0 0 70 70" fill="none" xmlns="http://www.w3.org/2000/svg">
<path d="M69.3497 22.1128L35.8007 0.237771C35.5637 0.0830936 35.2868 0.000732422 35.0037 0.000732422C34.7207 0.000732422 34.4438 0.0830936 34.2068 0.237771L0.665101 22.1128C0.352988 22.3291 0.137589 22.6587 0.0647083 23.0314C-0.00817196 23.4041 0.0672165 23.7906 0.274842 24.1086C0.482467 24.4266 0.80595 24.651 1.1765 24.7342C1.54705 24.8174 1.93543 24.7527 2.25906 24.554L5.83343 22.2207V65.6251C5.83343 66.7854 6.29437 67.8982 7.11484 68.7187C7.93531 69.5391 9.04811 70.0001 10.2084 70.0001H59.802C60.9623 70.0001 62.0751 69.5391 62.8956 68.7187C63.716 67.8982 64.177 66.7854 64.177 65.6251V22.2207C64.7428 22.4905 67.9395 24.939 68.552 24.7917C68.863 24.7856 69.1641 24.6808 69.4117 24.4924C69.6592 24.304 69.8405 24.0418 69.9293 23.7436C70.0181 23.4454 70.0098 23.1268 69.9056 22.8336C69.8014 22.5405 69.6067 22.288 69.3497 22.1128V22.1128ZM51.0491 67.0834H48.1324V56.8751C48.1324 56.4883 47.9787 56.1174 47.7053 55.8439C47.4318 55.5704 47.0608 55.4167 46.6741 55.4167H42.2918V45.2084C42.2918 44.8216 42.1381 44.4507 41.8646 44.1772C41.5911 43.9037 41.2202 43.7501 40.8334 43.7501H29.1668C28.78 43.7501 28.4091 43.9037 28.1356 44.1772C27.8621 44.4507 27.7084 44.8216 27.7084 45.2084V55.4167H23.3334C22.9467 55.4167 22.5757 55.5704 22.3022 55.8439C22.0287 56.1174 21.8751 56.4883 21.8751 56.8751V67.0834H18.9584V40.8334H51.0418L51.0491 67.0834ZM30.6251 55.4167V46.6667H39.3751V55.4167H30.6251ZM24.7918 58.3334H33.5418V67.0834H24.7918V58.3334ZM36.4584 67.0834V58.3334H45.2084V67.0834H36.4584ZM61.2501 65.6251C61.2501 66.0118 61.0965 66.3828 60.823 66.6563C60.5495 66.9298 60.1785 67.0834 59.7918 67.0834H53.9584V39.3751C53.9584 38.9883 53.8048 38.6174 53.5313 38.3439C53.2578 38.0704 52.8869 37.9167 52.5001 37.9167H17.5001C17.1133 37.9167 16.7424 38.0704 16.4689 38.3439C16.1954 38.6174 16.0418 38.9883 16.0418 39.3751V67.0834H10.2084C9.82166 67.0834 9.45073 66.9298 9.17724 66.6563C8.90375 66.3828 8.7501 66.0118 8.7501 65.6251V20.319L35.0001 3.19965L61.2501 20.319V65.6251ZM46.6668 29.1667C46.6668 29.5535 46.5131 29.9244 46.2396 30.1979C45.9661 30.4714 45.5952 30.6251 45.2084 30.6251H24.7918C24.405 30.6251 24.0341 30.4714 23.7606 30.1979C23.4871 29.9244 23.3334 29.5535 23.3334 29.1667C23.3334 28.78 23.4871 28.409 23.7606 28.1355C24.0341 27.862 24.405 27.7084 24.7918 27.7084H45.2084C45.4006 27.7074 45.591 27.7444 45.7687 27.8173C45.9465 27.8902 46.1082 27.9974 46.2443 28.1329C46.3805 28.2685 46.4886 28.4295 46.5624 28.607C46.6361 28.7844 46.6741 28.9746 46.6741 29.1667H46.6668ZM24.7918 20.4167H45.2084C45.5952 20.4167 45.9661 20.5704 46.2396 20.8439C46.5131 21.1174 46.6668 21.4883 46.6668 21.8751C46.6668 22.2618 46.5131 22.6328 46.2396 22.9063C45.9661 23.1797 45.5952 23.3334 45.2084 23.3334H24.7918C24.405 23.3334 24.0341 23.1797 23.7606 22.9063C23.4871 22.6328 23.3334 22.2618 23.3334 21.8751C23.3334 21.4883 23.4871 21.1174 23.7606 20.8439C24.0341 20.5704 24.405 20.4167 24.7918 20.4167Z" fill="white"/>
</svg>
