<svg width="20" height="20" viewBox="0 0 20 20" fill="none" xmlns="http://www.w3.org/2000/svg">
<path d="M19.5079 8.81262L11.1886 0.493276C10.5324 -0.162879 9.46827 -0.162879 8.81211 0.493276C8.15595 1.14943 8.15595 2.21361 8.81211 2.86977L15.9424 10L8.81211 17.1303C8.15595 17.7864 8.15595 18.8506 8.81211 19.5068C9.46827 20.1629 10.5324 20.1629 11.1886 19.5068L19.5079 11.1874C20.1641 10.5329 20.1641 9.46878 19.5079 8.81262ZM9.5049 8.30885L2.90007 1.34763C2.23639 0.649023 1.16143 0.649023 0.497754 1.34763C-0.165918 2.04623 -0.165918 3.17953 0.497754 3.87899L5.90187 9.57453L0.497754 15.2701C-0.165918 15.9687 -0.165918 17.1028 0.497754 17.8014C1.16143 18.5001 2.23639 18.5001 2.90007 17.8014L9.5049 10.8402C10.1686 10.1416 10.1686 9.0083 9.5049 8.30885Z" fill="#FF6B00"/>
</svg>
