<svg width="70" height="70" viewBox="0 0 70 70" fill="none" xmlns="http://www.w3.org/2000/svg">
<path d="M28.92 58.576C28.92 59.18 28.4302 59.6698 27.8262 59.6698H14.7618C12.7188 59.6698 11.0564 58.0075 11.0564 55.9645V46.8682L8.76351 49.776C8.38931 50.2504 7.70134 50.3315 7.22748 49.9575C6.75306 49.5835 6.67185 48.8958 7.04578 48.4215L11.2913 43.0375C11.4988 42.7745 11.8152 42.6211 12.1502 42.6211C12.4851 42.6211 12.8016 42.7746 13.0089 43.0375L17.2547 48.4215C17.6288 48.8958 17.5476 49.5836 17.0733 49.9575C16.8726 50.1157 16.6337 50.1926 16.3967 50.1926C16.0733 50.1926 15.753 50.0497 15.5372 49.776L13.2441 46.8681V55.9645C13.2441 56.8014 13.9249 57.4823 14.7619 57.4823H27.8263C28.4302 57.4823 28.92 57.972 28.92 58.576V58.576ZM41.8519 16.0316H54.9164C55.7532 16.0316 56.4341 16.7125 56.4341 17.5493V26.6459L54.1409 23.7379C53.767 23.2635 53.079 23.1823 52.6048 23.5563C52.1307 23.9304 52.0494 24.6181 52.4234 25.0924L56.6692 30.4763C56.8766 30.7394 57.193 30.8928 57.528 30.8928C57.8629 30.8928 58.1794 30.7393 58.3868 30.4763L62.6325 25.0924C63.0064 24.6181 62.9252 23.9303 62.4509 23.5563C61.9765 23.1823 61.2888 23.2635 60.9147 23.7379L58.6218 26.6458V17.5493C58.6218 15.5063 56.9597 13.8441 54.9166 13.8441H41.8522C41.2482 13.8441 40.7584 14.3338 40.7584 14.9379C40.7584 15.5419 41.2479 16.0316 41.8519 16.0316V16.0316ZM69.3163 51.4393C68.7534 52.2163 67.9214 52.7275 66.9738 52.8787C66.7822 52.9093 66.5902 52.9243 66.3999 52.9245C65.7365 52.9245 65.0901 52.7403 64.5213 52.388V64.0002C64.5213 66.5732 62.4278 68.6665 59.8549 68.6665H43.778C41.205 68.6665 39.1115 66.5731 39.1115 64.0002V52.3876C38.379 52.8412 37.5179 53.0159 36.6589 52.8787C35.7113 52.7275 34.8794 52.2161 34.3165 51.4393C33.7534 50.6623 33.5267 49.7125 33.6779 48.7649C33.8293 47.8175 34.3406 46.9855 35.1174 46.4225L49.7075 35.8222C50.995 34.8891 52.7088 34.9048 53.9768 35.8595L68.5166 46.4232C69.2925 46.9854 69.8037 47.8173 69.955 48.7648C70.1061 49.7125 69.8794 50.6623 69.3163 51.4393V51.4393ZM54.1857 55.5877C54.1857 55.2696 53.9169 55.0009 53.5988 55.0009H50.034C49.716 55.0009 49.4472 55.2696 49.4472 55.5877V66.479H54.1857V55.5877ZM62.3338 64.0002V50.8118L51.8164 43.1705L41.299 50.8119V64.0002C41.299 65.3671 42.4111 66.479 43.778 66.479H47.2597V55.5877C47.2597 54.058 48.5042 52.8134 50.034 52.8134H53.5988C55.1285 52.8134 56.3732 54.058 56.3732 55.5877V66.479H59.8549C61.2217 66.479 62.3338 65.367 62.3338 64.0002V64.0002ZM67.7947 49.1099C67.7355 48.7394 67.5356 48.4141 67.2318 48.1939L52.6829 37.6235C52.6769 37.6191 52.6709 37.6146 52.6649 37.6101C52.1768 37.2397 51.4885 37.2328 50.9922 37.5928L36.4022 48.1932C36.0973 48.4141 35.8973 48.7395 35.8381 49.11C35.7789 49.4805 35.8676 49.8518 36.0877 50.1556C36.3078 50.4596 36.6332 50.6594 37.0037 50.7185C37.3745 50.778 37.7458 50.689 38.0495 50.4689L51.1734 40.9337C51.3649 40.7944 51.5907 40.7248 51.8162 40.7248C52.0418 40.7248 52.2674 40.7944 52.4591 40.9337L65.5842 50.4697C65.8869 50.6891 66.2583 50.7783 66.6289 50.7185C66.9994 50.6593 67.3248 50.4594 67.5449 50.1556C67.7652 49.8518 67.8539 49.4805 67.7947 49.1099V49.1099ZM33.341 19.0744C33.1494 19.105 32.9574 19.1201 32.7671 19.1201C32.1037 19.1201 31.4575 18.9359 30.8884 18.5836V30.1958C30.8884 32.7688 28.795 34.8623 26.222 34.8623H10.1451C7.57214 34.8623 5.47871 32.7688 5.47871 30.1958V18.5829C3.89496 19.5618 1.79345 19.1663 0.683569 17.6349C-0.478678 16.0309 -0.119244 13.7805 1.48447 12.6181L16.0747 2.0178C17.3626 1.08442 19.0765 1.10055 20.3443 2.05539L34.8836 12.6188C36.4864 13.7804 36.8457 16.0308 35.6836 17.6348C35.1206 18.4119 34.2886 18.9231 33.341 19.0744V19.0744ZM20.5528 21.7835C20.5528 21.4654 20.284 21.1967 19.966 21.1967H16.4012C16.083 21.1967 15.8142 21.4654 15.8142 21.7835V32.6748H20.5528V21.7835ZM28.7009 30.1958V17.0075L18.1836 9.36629L7.66621 17.0075V30.1958C7.66621 31.5627 8.77828 32.6748 10.1451 32.6748H13.6267V21.7835C13.6267 20.2537 14.8714 19.0092 16.4012 19.0092H19.966C21.4957 19.0092 22.7403 20.2537 22.7403 21.7835V32.6748H26.222C27.5889 32.6748 28.7009 31.5627 28.7009 30.1958ZM33.599 14.3895L19.0501 3.8192C19.0441 3.81483 19.0381 3.81032 19.032 3.8058C18.5438 3.43571 17.856 3.4286 17.3594 3.78858L2.76921 14.3888C2.14085 14.8442 2.00044 15.7243 2.4549 16.3514C2.90908 16.9784 3.78873 17.1189 4.41599 16.665L17.5407 7.1293C17.7324 6.98998 17.958 6.92039 18.1836 6.92039C18.4092 6.92039 18.6347 6.98998 18.8264 7.1293L31.9516 16.6653C32.2543 16.8847 32.6256 16.973 32.9962 16.9141C33.3667 16.8549 33.6921 16.655 33.9122 16.3513C34.3667 15.7241 34.2262 14.8441 33.599 14.3895V14.3895Z" fill="white"/>
</svg>
