<svg width="116" height="116" viewBox="0 0 116 116" fill="none" xmlns="http://www.w3.org/2000/svg">
<path d="M36.8417 24.9265H116V69.4498H36.8417V24.9265Z" fill="white"/>
<path d="M4.36234e-05 56.7665L8.13767 38.5676H33.2918V72.8042H62.3022H89.3545H106.444V80.5874H98.3054C98.3705 81.0299 98.4153 81.4788 98.4153 81.939C98.4153 86.9839 94.3587 91.0734 89.3542 91.0734C84.3497 91.0734 80.2931 86.9836 80.2931 81.939C80.2931 81.4788 80.338 81.0299 80.403 80.5874H71.2525C71.3176 81.0299 71.3624 81.4788 71.3624 81.939C71.3624 86.9839 67.3058 91.0734 62.3013 91.0734C57.2974 91.0734 53.2405 86.9836 53.2405 81.939C53.2405 81.4788 53.2851 81.0299 53.3502 80.5874H33.2907H31.5111C31.5762 81.0299 31.621 81.4788 31.621 81.939C31.621 86.9839 27.5644 91.0734 22.5599 91.0734C17.556 91.0734 13.4991 86.9836 13.4991 81.939C13.4991 81.4788 13.5437 81.0299 13.6087 80.5874H4.36234e-05V56.7665V56.7665ZM89.3545 85.5143C91.3133 85.5143 92.9013 83.9136 92.9013 81.939C92.9013 81.4602 92.8064 81.0047 92.6375 80.5874C92.1086 79.2829 90.839 78.363 89.3548 78.363C87.8706 78.363 86.601 79.2829 86.0721 80.5874C85.9032 81.0047 85.8082 81.4602 85.8082 81.939C85.8079 83.9136 87.3957 85.5143 89.3545 85.5143ZM62.3022 85.5143C64.261 85.5143 65.849 83.9136 65.849 81.939C65.849 81.4602 65.754 81.0047 65.5851 80.5874C65.0562 79.2829 63.7866 78.363 62.3024 78.363C60.8182 78.363 59.5486 79.2829 59.02 80.5874C58.8508 81.0047 58.7559 81.4602 58.7559 81.939C58.7556 83.9136 60.3433 85.5143 62.3022 85.5143ZM22.5613 85.5143C24.5201 85.5143 26.1081 83.9136 26.1081 81.939C26.1081 81.4602 26.0132 81.0047 25.8443 80.5874C25.3154 79.2829 24.0458 78.363 22.5616 78.363C21.0774 78.363 19.8078 79.2829 19.2792 80.5874C19.11 81.0047 19.015 81.4602 19.015 81.939C19.0144 83.9136 20.6022 85.5143 22.5613 85.5143ZM27.3027 56.424C27.4387 56.424 27.5489 56.3138 27.5489 56.1778V43.8828C27.5489 43.7468 27.4389 43.6366 27.3027 43.6366H11.818C11.4915 43.6366 11.1961 43.8299 11.0654 44.1292L5.69346 56.424H27.3027V56.424Z" fill="white"/>
</svg>
