<svg width="116" height="116" viewBox="0 0 116 116" fill="none" xmlns="http://www.w3.org/2000/svg">
<path d="M88.9333 67.6667C83.6032 67.6667 79.2666 72.0032 79.2666 77.3335C79.2666 82.6636 83.603 87.0002 88.9333 87.0002C94.2635 87.0002 98.6001 82.6638 98.6001 77.3335C98.6001 72.0032 94.2637 67.6667 88.9333 67.6667ZM88.9333 83.1333C85.7356 83.1333 83.1333 80.531 83.1333 77.3333C83.1333 74.1356 85.7356 71.5333 88.9333 71.5333C92.131 71.5333 94.7333 74.1356 94.7333 77.3333C94.7333 80.531 92.131 83.1333 88.9333 83.1333Z" fill="white"/>
<path d="M27.0666 67.6667C21.7365 67.6667 17.3999 72.0032 17.3999 77.3335C17.3999 82.6636 21.7363 87 27.0666 87C32.397 87 36.7334 82.6636 36.7334 77.3333C36.7332 72.0032 32.3968 67.6667 27.0666 67.6667ZM27.0666 83.1333C23.8689 83.1333 21.2666 80.531 21.2666 77.3333C21.2666 74.1356 23.8689 71.5333 27.0666 71.5333C30.2643 71.5333 32.8666 74.1356 32.8666 77.3333C32.8666 80.531 30.2643 83.1333 27.0666 83.1333Z" fill="white"/>
<path d="M115.434 66.2999L114.067 64.933V63.8002V61.867V58V56.0667V30.9333C114.067 29.8661 113.203 29 112.133 29H25.1335C24.5032 29 23.9116 29.3074 23.55 29.8256L10.1674 48.9425C7.93059 50.7985 5.80589 52.9966 4.26119 56.0667L2.80145 59.9335C2.40519 61.4145 2.10748 63.0347 1.97789 64.8866L0.566406 66.2999C0.203 66.6615 0 67.1545 0 67.6667V71.5335C0 72.0457 0.203 72.5387 0.566406 72.9003L1.93326 74.2672V77.3335C1.93326 78.4006 2.79737 79.2667 3.86652 79.2667H11.6C12.6691 79.2667 13.5333 78.4006 13.5333 77.3335C13.5333 69.8707 19.6058 63.8002 27.0665 63.8002C34.5272 63.8002 40.5998 69.871 40.5998 77.3335C40.5998 78.4006 41.4639 79.2667 42.533 79.2667H73.4663C74.5354 79.2667 75.3995 78.4006 75.3995 77.3335C75.3995 69.8707 81.4721 63.8002 88.9328 63.8002C96.3935 63.8002 102.466 69.871 102.466 77.3335C102.466 78.4006 103.33 79.2667 104.399 79.2667H112.133C113.202 79.2667 114.066 78.4006 114.066 77.3335V74.2672L115.433 72.9003C115.796 72.5387 115.999 72.0457 115.999 71.5335V67.6667C116 67.1543 115.797 66.6613 115.434 66.2999ZM42.5333 46.4C42.5333 47.4671 41.6691 48.3333 40.6 48.3333H19.3333C18.6198 48.3333 17.9644 47.9409 17.6281 47.3124C17.2917 46.6841 17.3304 45.9204 17.7249 45.3288L25.4581 33.7288C25.8177 33.1894 26.421 32.8665 27.0667 32.8665H40.6C41.6691 32.8665 42.5333 33.7327 42.5333 34.7998V46.4V46.4Z" fill="white"/>
</svg>
