<svg width="221" height="65" viewBox="0 0 221 65" fill="none" xmlns="http://www.w3.org/2000/svg">
<line x1="69" y1="54.5" x2="203" y2="54.5" stroke="white"/>
<path d="M77.7687 43.36C75.9447 43.36 74.4807 42.976 73.3767 42.208C72.2967 41.416 71.5047 40.276 71.0007 38.788C70.5207 37.3 70.2807 35.512 70.2807 33.424V23.668C70.2807 21.532 70.4967 19.72 70.9287 18.232C71.3847 16.72 72.1767 15.568 73.3047 14.776C74.4567 13.984 76.0527 13.588 78.0927 13.588C79.9167 13.588 81.3807 13.9 82.4847 14.524C83.6127 15.124 84.4287 16.06 84.9327 17.332C85.4367 18.58 85.6887 20.164 85.6887 22.084V23.164H81.8727V22.264C81.8727 20.992 81.7887 19.96 81.6207 19.168C81.4527 18.352 81.1047 17.752 80.5767 17.368C80.0727 16.96 79.2687 16.756 78.1647 16.756C76.9647 16.756 76.0887 17.032 75.5367 17.584C75.0087 18.136 74.6727 18.892 74.5287 19.852C74.4087 20.788 74.3487 21.856 74.3487 23.056V33.856C74.3487 35.248 74.4447 36.412 74.6367 37.348C74.8527 38.284 75.2487 38.98 75.8247 39.436C76.4007 39.892 77.2167 40.12 78.2727 40.12C79.3287 40.12 80.1447 39.868 80.7207 39.364C81.2967 38.86 81.6927 38.116 81.9087 37.132C82.1247 36.148 82.2327 34.924 82.2327 33.46V31.444H78.5247V28.564H85.9047V43H83.3487L82.9527 39.652C82.5687 40.732 81.9687 41.62 81.1527 42.316C80.3367 43.012 79.2087 43.36 77.7687 43.36ZM90.3024 43V13.84H94.2984V43H90.3024ZM106.468 43.324C104.5 43.324 102.928 42.94 101.752 42.172C100.576 41.404 99.736 40.312 99.232 38.896C98.728 37.456 98.476 35.776 98.476 33.856V22.804C98.476 20.884 98.728 19.24 99.232 17.872C99.76 16.48 100.6 15.424 101.752 14.704C102.928 13.96 104.5 13.588 106.468 13.588C108.436 13.588 109.996 13.96 111.148 14.704C112.3 15.448 113.128 16.504 113.632 17.872C114.16 19.24 114.424 20.884 114.424 22.804V33.892C114.424 35.788 114.16 37.444 113.632 38.86C113.128 40.276 112.3 41.38 111.148 42.172C109.996 42.94 108.436 43.324 106.468 43.324ZM106.468 40.12C107.548 40.12 108.364 39.904 108.916 39.472C109.468 39.016 109.84 38.392 110.032 37.6C110.224 36.784 110.32 35.836 110.32 34.756V21.976C110.32 20.896 110.224 19.972 110.032 19.204C109.84 18.412 109.468 17.812 108.916 17.404C108.364 16.972 107.548 16.756 106.468 16.756C105.388 16.756 104.56 16.972 103.984 17.404C103.432 17.812 103.06 18.412 102.868 19.204C102.676 19.972 102.58 20.896 102.58 21.976V34.756C102.58 35.836 102.676 36.784 102.868 37.6C103.06 38.392 103.432 39.016 103.984 39.472C104.56 39.904 105.388 40.12 106.468 40.12ZM121.626 43V16.864H116.694V13.84H130.482V16.864H125.694V43H121.626ZM133.293 43V13.84H139.161C141.105 13.84 142.713 14.104 143.985 14.632C145.257 15.136 146.193 15.964 146.793 17.116C147.417 18.244 147.729 19.732 147.729 21.58C147.729 22.708 147.609 23.74 147.369 24.676C147.129 25.588 146.745 26.368 146.217 27.016C145.689 27.64 144.993 28.096 144.129 28.384L148.269 43H144.345L140.529 29.32H137.361V43H133.293ZM137.361 26.404H138.909C140.061 26.404 140.997 26.26 141.717 25.972C142.437 25.684 142.965 25.192 143.301 24.496C143.637 23.8 143.805 22.828 143.805 21.58C143.805 19.876 143.493 18.652 142.869 17.908C142.245 17.14 141.009 16.756 139.161 16.756H137.361V26.404ZM150.377 43L156.569 13.84H160.493L166.721 43H162.869L161.537 35.656H155.597L154.193 43H150.377ZM156.137 32.74H160.997L158.549 19.6L156.137 32.74ZM169.68 43V13.84H172.452L180.732 33.208V13.84H184.116V43H181.524L173.136 23.092V43H169.68ZM195.576 43.324C193.896 43.324 192.492 42.964 191.364 42.244C190.26 41.524 189.42 40.528 188.844 39.256C188.268 37.984 187.932 36.508 187.836 34.828L191.436 33.856C191.508 34.888 191.664 35.884 191.904 36.844C192.168 37.804 192.588 38.596 193.164 39.22C193.74 39.82 194.544 40.12 195.576 40.12C196.632 40.12 197.424 39.832 197.952 39.256C198.504 38.656 198.78 37.804 198.78 36.7C198.78 35.38 198.48 34.324 197.88 33.532C197.28 32.716 196.524 31.9 195.612 31.084L190.716 26.764C189.756 25.924 189.048 25.012 188.592 24.028C188.136 23.02 187.908 21.784 187.908 20.32C187.908 18.184 188.52 16.528 189.744 15.352C190.968 14.176 192.636 13.588 194.748 13.588C195.9 13.588 196.908 13.744 197.772 14.056C198.66 14.344 199.392 14.8 199.968 15.424C200.568 16.048 201.036 16.84 201.372 17.8C201.732 18.736 201.972 19.84 202.092 21.112L198.636 22.048C198.564 21.088 198.42 20.212 198.204 19.42C197.988 18.604 197.604 17.956 197.052 17.476C196.524 16.972 195.756 16.72 194.748 16.72C193.74 16.72 192.948 16.996 192.372 17.548C191.82 18.076 191.544 18.868 191.544 19.924C191.544 20.812 191.688 21.544 191.976 22.12C192.288 22.696 192.78 23.284 193.452 23.884L198.384 28.204C199.488 29.164 200.46 30.316 201.3 31.66C202.14 32.98 202.56 34.552 202.56 36.376C202.56 37.816 202.26 39.064 201.66 40.12C201.06 41.152 200.232 41.944 199.176 42.496C198.144 43.048 196.944 43.324 195.576 43.324Z" fill="white"/>
<g clip-path="url(#clip0_184_23)">
<path d="M57.7803 21.7683H56.557V18.7112C56.557 18.3717 56.2836 18.102 55.9477 18.102H50.9738V12.3682C50.9738 11.3544 50.1526 10.5333 49.14 10.5333H9.86002C8.84621 10.5333 8.02504 11.3544 8.02504 12.3682V18.1008H3.05349C2.71635 18.1008 2.44303 18.3729 2.44303 18.7124V21.7695H1.22212C0.546642 21.7695 0 22.3174 0 22.9928V29.4129C0 30.0884 0.546642 30.6362 1.22212 30.6362H2.44303V33.6933C2.44303 34.0316 2.71635 34.3038 3.05349 34.3038H8.02504V39.6787H7.97929C6.96547 39.6787 6.14551 40.4998 6.14551 41.5112V48.6441C6.14551 49.2509 6.44411 49.7843 6.89804 50.119C6.44411 50.4526 6.14551 50.9896 6.14551 51.5964V54.4609C6.14551 55.4747 6.96667 56.2947 7.97929 56.2947H8.89919V59.2458C8.89919 59.9213 9.72878 60.4667 10.7546 60.4667H16.9411C17.9657 60.4667 18.7941 59.9213 18.7941 59.2458V56.2922H40.1999V59.2434C40.1999 59.9189 41.0294 60.4643 42.0601 60.4643H48.2454C49.2736 60.4643 50.1008 59.9189 50.1008 59.2434V56.2922H51.0207C52.0345 56.2922 52.8569 55.4687 52.8569 54.4585V51.594C52.8569 50.9872 52.5559 50.4538 52.102 50.1166C52.5559 49.7855 52.8569 49.2485 52.8569 48.6417V41.5088C52.8569 40.495 52.0321 39.6751 51.0207 39.6751H50.9774V34.3026H55.9465C56.2849 34.3026 56.5594 34.0292 56.5594 33.6909V30.6338H57.7779C58.457 30.6338 59.0024 30.0859 59.0024 29.4105V22.9904C59.0024 22.3162 58.4558 21.7683 57.7803 21.7683ZM8.02504 33.0816H3.66395V30.635H4.88486C5.56154 30.635 6.10818 30.0871 6.10818 29.4129V22.9916C6.10818 22.3162 5.56154 21.7695 4.88486 21.7695H3.66395V19.3241H8.02384L8.02504 33.0816ZM10.7245 54.7619C9.795 54.7619 9.04247 54.0094 9.04247 53.081C9.04247 52.1527 9.79741 51.4014 10.7245 51.4014C11.6517 51.4014 12.4054 52.1539 12.4054 53.081C12.4054 54.0118 11.6529 54.7619 10.7245 54.7619ZM15.2072 54.7619C14.2777 54.7619 13.5264 54.0094 13.5264 53.081C13.5264 52.1527 14.2801 51.4014 15.2072 51.4014C16.1368 51.4014 16.8881 52.1539 16.8881 53.081C16.8881 54.0118 16.1368 54.7619 15.2072 54.7619ZM17.1686 47.8337H9.01598V42.8405H17.1686V47.8337ZM39.1812 50.3286H19.8176V48.1071H39.1812V50.3286ZM39.1812 46.8247H19.8176V44.041H39.1812V46.8247ZM39.1812 42.7562H19.8176V39.9737H39.1812V42.7562ZM39.1812 38.6913H19.8176V35.91H39.1812V38.6913ZM11.6938 27.2311V14.2032H47.3062V27.2311H11.6938ZM43.7952 54.7619C42.862 54.7619 42.1143 54.0094 42.1143 53.081C42.1143 52.1527 42.8668 51.4014 43.7952 51.4014C44.7235 51.4014 45.4748 52.1539 45.4748 53.081C45.4748 54.0118 44.7247 54.7619 43.7952 54.7619ZM48.2755 54.7619C47.3471 54.7619 46.597 54.0094 46.597 53.081C46.597 52.1527 47.3495 51.4014 48.2755 51.4014C49.2086 51.4014 49.9587 52.1539 49.9587 53.081C49.9587 54.0118 49.2038 54.7619 48.2755 54.7619ZM49.9828 47.8337H41.8301V42.8405H49.9828V47.8337ZM55.3349 21.7683H54.1115C53.4349 21.7683 52.8906 22.3162 52.8906 22.9916V29.4117C52.8906 30.0871 53.4336 30.635 54.1115 30.635H55.3349V33.0804H50.9713V19.3229H55.3349V21.7683Z" fill="white"/>
</g>
<defs>
<clipPath id="clip0_184_23">
<rect width="59" height="59" fill="white" transform="translate(0 6)"/>
</clipPath>
</defs>
</svg>
