<svg width="60" height="60" viewBox="0 0 60 60" fill="none" xmlns="http://www.w3.org/2000/svg">
<g clip-path="url(#clip0_239_106)">
<path d="M51.5139 46.6101C50.4971 46.6108 49.503 46.31 48.6572 45.7457C47.8115 45.1813 47.1521 44.3788 46.7625 43.4397C46.3728 42.5005 46.2705 41.4669 46.4684 40.4696C46.6663 39.4723 47.1556 38.5561 47.8743 37.8369C48.593 37.1177 49.5088 36.6278 50.506 36.4291C51.5031 36.2305 52.5368 36.3321 53.4762 36.721C54.4157 37.1099 55.2187 37.7687 55.7836 38.6141C56.3486 39.4594 56.6501 40.4533 56.6501 41.4701C56.6495 42.8324 56.1082 44.1389 55.1452 45.1026C54.1823 46.0662 52.8762 46.6084 51.5139 46.6101V46.6101ZM51.5139 38.2051C50.868 38.2043 50.2363 38.3952 49.6989 38.7535C49.1615 39.1118 48.7424 39.6215 48.4947 40.218C48.247 40.8146 48.1818 41.4712 48.3074 42.1047C48.433 42.7383 48.7436 43.3205 49.2001 43.7775C49.6566 44.2344 50.2383 44.5458 50.8718 44.6721C51.5052 44.7984 52.1619 44.7339 52.7587 44.4869C53.3555 44.2399 53.8657 43.8214 54.2246 43.2844C54.5835 42.7474 54.7751 42.116 54.7751 41.4701C54.7748 40.6049 54.4312 39.7752 53.8198 39.1631C53.2084 38.5509 52.379 38.2064 51.5139 38.2051V38.2051Z" fill="#FF6B00"/>
<path d="M24.4275 46.6101C23.4107 46.6111 22.4164 46.3104 21.5705 45.7463C20.7246 45.1821 20.065 44.3797 19.6752 43.4405C19.2854 42.5014 19.1829 41.4678 19.3806 40.4704C19.5784 39.473 20.0675 38.5567 20.7862 37.8373C21.5048 37.118 22.4207 36.6279 23.4179 36.4292C24.4151 36.2305 25.4488 36.332 26.3883 36.7209C27.3278 37.1097 28.1309 37.7686 28.6959 38.6139C29.2609 39.4593 29.5625 40.4533 29.5625 41.4701C29.5615 42.8321 29.0203 44.1382 28.0577 45.1017C27.095 46.0653 25.7895 46.6078 24.4275 46.6101V46.6101ZM24.4275 38.2051C23.7815 38.2041 23.1498 38.3947 22.6122 38.7529C22.0746 39.1111 21.6553 39.6206 21.4074 40.2171C21.1596 40.8137 21.0942 41.4703 21.2196 42.104C21.345 42.7377 21.6556 43.3199 22.112 43.777C22.5684 44.2341 23.1502 44.5456 23.7837 44.672C24.4171 44.7984 25.0739 44.734 25.6708 44.487C26.2677 44.24 26.7779 43.8216 27.1369 43.2845C27.4959 42.7475 27.6875 42.116 27.6875 41.4701C27.6868 40.6052 27.3433 39.7759 26.7322 39.1639C26.1211 38.5518 25.2923 38.2071 24.4275 38.2051V38.2051Z" fill="#FF6B00"/>
<path d="M58.2763 42.4074H55.7125C55.4639 42.4074 55.2254 42.3086 55.0496 42.1328C54.8738 41.957 54.775 41.7185 54.775 41.4699C54.775 41.2212 54.8738 40.9828 55.0496 40.807C55.2254 40.6312 55.4639 40.5324 55.7125 40.5324H58.0113V35.5611C58.0107 34.889 57.8386 34.2282 57.5113 33.6411L52.4362 24.5424C52.3929 24.4647 52.3296 24.4 52.2529 24.355C52.1762 24.31 52.0889 24.2862 52 24.2861H45.0837V40.5361H47.3162C47.5649 40.5361 47.8033 40.6349 47.9792 40.8107C48.155 40.9865 48.2537 41.225 48.2537 41.4736C48.2537 41.7223 48.155 41.9607 47.9792 42.1365C47.8033 42.3124 47.5649 42.4111 47.3162 42.4111H44.1462C43.8976 42.4111 43.6591 42.3124 43.4833 42.1365C43.3075 41.9607 43.2087 41.7223 43.2087 41.4736V23.3486C43.2087 23.1 43.3075 22.8615 43.4833 22.6857C43.6591 22.5099 43.8976 22.4111 44.1462 22.4111H52C52.4229 22.4109 52.8383 22.5237 53.2031 22.7377C53.5679 22.9517 53.8689 23.2593 54.075 23.6286L59.1488 32.7286C59.6311 33.5948 59.8845 34.5697 59.885 35.5611V40.7986C59.8843 41.2251 59.7146 41.6339 59.4131 41.9355C59.1115 42.237 58.7027 42.4067 58.2763 42.4074V42.4074Z" fill="#FF6B00"/>
<path d="M20.2287 42.4075H11.24C10.9913 42.4075 10.7529 42.3087 10.5771 42.1329C10.4013 41.9571 10.3025 41.7186 10.3025 41.47V34.26C10.3025 34.0114 10.4013 33.7729 10.5771 33.5971C10.7529 33.4213 10.9913 33.3225 11.24 33.3225C11.4886 33.3225 11.7271 33.4213 11.9029 33.5971C12.0787 33.7729 12.1775 34.0114 12.1775 34.26V40.5325H20.2287C20.4774 40.5325 20.7158 40.6313 20.8917 40.8071C21.0675 40.9829 21.1662 41.2214 21.1662 41.47C21.1662 41.7186 21.0675 41.9571 20.8917 42.1329C20.7158 42.3087 20.4774 42.4075 20.2287 42.4075Z" fill="#FF6B00"/>
<path d="M11.24 30.9337C10.9913 30.9337 10.7529 30.8349 10.5771 30.6591C10.4013 30.4833 10.3025 30.2448 10.3025 29.9962V23.7012C10.3025 23.4525 10.4013 23.2141 10.5771 23.0383C10.7529 22.8624 10.9913 22.7637 11.24 22.7637C11.4886 22.7637 11.7271 22.8624 11.9029 23.0383C12.0787 23.2141 12.1775 23.4525 12.1775 23.7012V29.9999C12.1765 30.2479 12.0773 30.4854 11.9016 30.6604C11.7259 30.8354 11.488 30.9337 11.24 30.9337V30.9337Z" fill="#FF6B00"/>
<path d="M44.1463 42.4076H28.625C28.3764 42.4076 28.1379 42.3088 27.9621 42.133C27.7863 41.9572 27.6875 41.7187 27.6875 41.4701C27.6875 41.2215 27.7863 40.983 27.9621 40.8072C28.1379 40.6314 28.3764 40.5326 28.625 40.5326H43.2088V16.0063H12.1775V19.8676C12.1775 20.1162 12.0787 20.3547 11.9029 20.5305C11.7271 20.7063 11.4886 20.8051 11.24 20.8051C10.9914 20.8051 10.7529 20.7063 10.5771 20.5305C10.4013 20.3547 10.3025 20.1162 10.3025 19.8676V15.8338C10.3032 15.3823 10.4829 14.9495 10.8023 14.6303C11.1217 14.3111 11.5547 14.1317 12.0062 14.1313H43.3813C43.8326 14.132 44.2652 14.3116 44.5844 14.6307C44.9035 14.9499 45.0831 15.3825 45.0838 15.8338V41.4701C45.0838 41.7187 44.985 41.9572 44.8092 42.133C44.6333 42.3088 44.3949 42.4076 44.1463 42.4076V42.4076Z" fill="#FF6B00"/>
<path d="M14.9464 35.1975H3.04761C2.79897 35.1975 2.56051 35.0987 2.3847 34.9229C2.20888 34.7471 2.11011 34.5087 2.11011 34.26C2.11011 34.0114 2.20888 33.7729 2.3847 33.5971C2.56051 33.4213 2.79897 33.3225 3.04761 33.3225H14.9464C15.195 33.3225 15.4335 33.4213 15.6093 33.5971C15.7851 33.7729 15.8839 34.0114 15.8839 34.26C15.8839 34.5087 15.7851 34.7471 15.6093 34.9229C15.4335 35.0987 15.195 35.1975 14.9464 35.1975V35.1975Z" fill="#FF6B00"/>
<path d="M24.4275 30.9338H7.82373C7.57509 30.9338 7.33663 30.8351 7.16082 30.6593C6.985 30.4834 6.88623 30.245 6.88623 29.9963C6.88623 29.7477 6.985 29.5092 7.16082 29.3334C7.33663 29.1576 7.57509 29.0588 7.82373 29.0588H24.4275C24.6761 29.0588 24.9146 29.1576 25.0904 29.3334C25.2662 29.5092 25.365 29.7477 25.365 29.9963C25.365 30.245 25.2662 30.4834 25.0904 30.6593C24.9146 30.8351 24.6761 30.9338 24.4275 30.9338V30.9338Z" fill="#FF6B00"/>
<path d="M7.30748 25.9836H0.82373C0.57509 25.9836 0.336633 25.8849 0.160818 25.7091C-0.0149975 25.5332 -0.11377 25.2948 -0.11377 25.0461C-0.11377 24.7975 -0.0149975 24.559 0.160818 24.3832C0.336633 24.2074 0.57509 24.1086 0.82373 24.1086H7.30748C7.55612 24.1086 7.79458 24.2074 7.97039 24.3832C8.14621 24.559 8.24498 24.7975 8.24498 25.0461C8.24498 25.2948 8.14621 25.5332 7.97039 25.7091C7.79458 25.8849 7.55612 25.9836 7.30748 25.9836Z" fill="#FF6B00"/>
<path d="M17.7038 20.8049H6.25879C6.01015 20.8049 5.77169 20.7062 5.59588 20.5303C5.42006 20.3545 5.32129 20.1161 5.32129 19.8674C5.32129 19.6188 5.42006 19.3803 5.59588 19.2045C5.77169 19.0287 6.01015 18.9299 6.25879 18.9299H17.7038C17.9524 18.9299 18.1909 19.0287 18.3667 19.2045C18.5425 19.3803 18.6413 19.6188 18.6413 19.8674C18.6413 20.1161 18.5425 20.3545 18.3667 20.5303C18.1909 20.7062 17.9524 20.8049 17.7038 20.8049Z" fill="#FF6B00"/>
</g>
<defs>
<clipPath id="clip0_239_106">
<rect width="60" height="60" fill="white"/>
</clipPath>
</defs>
</svg>
